<?xml version="1.0" encoding="UTF-8"?>
<svg version="1.1" xmlns="http://www.w3.org/2000/svg" width="250" height="250">
<path d="M0 0 C82.5 0 165 0 250 0 C250 82.5 250 165 250 250 C167.5 250 85 250 0 250 C0 167.5 0 85 0 0 Z " fill="#001026" transform="translate(0,0)"/>
<path d="M0 0 C2.61694336 1.90214539 2.61694336 1.90214539 5.08984375 4.42456055 C5.54779327 4.8832402 6.0057428 5.34191986 6.47756958 5.8144989 C7.97877034 7.32492958 9.45769367 8.85534686 10.9375 10.38671875 C11.9854987 11.44847039 13.03492155 12.50881803 14.08569336 13.56782532 C16.84500278 16.35564368 19.58626994 19.16053598 22.3236084 21.96990967 C25.63661951 25.36434081 28.96846003 28.74026568 32.29963684 32.11685658 C34.89518386 34.74791273 37.48718064 37.3821127 40.06811523 40.0275116 C43.9844974 44.02975831 47.86998806 47.98592395 52.18359375 51.56567383 C53.11300781 52.36900146 54.04242188 53.1723291 55 54 C55 54.66 55 55.32 55 56 C55.66 56 56.32 56 57 56 C56.97381592 54.86981445 56.94763184 53.73962891 56.9206543 52.57519531 C56.83009286 48.37845692 56.77272969 44.18180469 56.7253418 39.984375 C56.700211 38.16847201 56.66610039 36.35267004 56.62280273 34.53710938 C56.56208489 31.92552777 56.53377719 29.31528406 56.51171875 26.703125 C56.48591232 25.89256653 56.4601059 25.08200806 56.43351746 24.24688721 C56.43159381 20.37322563 56.54453351 18.48011156 59.26049805 15.6171875 C60.16453369 15.08351563 61.06856934 14.54984375 62 14 C62.71687988 13.5472168 63.43375977 13.09443359 64.17236328 12.62792969 C66.48636247 11.32863939 68.80180293 10.0327926 71.125 8.75 C71.93582031 8.29109375 72.74664062 7.8321875 73.58203125 7.359375 C74.36191406 6.92625 75.14179688 6.493125 75.9453125 6.046875 C76.65187988 5.65338867 77.35844727 5.25990234 78.08642578 4.85449219 C80 4 80 4 83 4 C83.13905399 14.34417715 83.24564826 24.68813178 83.31087303 35.0330534 C83.34217892 39.83674328 83.38463773 44.63979351 83.45263672 49.44311523 C83.51785645 54.07915844 83.55371163 58.71458666 83.56926346 63.35105324 C83.5803452 65.11935928 83.60198607 66.88763186 83.63438034 68.65567589 C83.6779813 71.13406305 83.68393301 73.60991373 83.68115234 76.08862305 C83.702724 76.81870575 83.72429565 77.54878845 83.746521 78.30099487 C83.71262728 81.0953638 83.55790659 83.32367354 81.7393074 85.52828407 C78.19115289 88.56227495 74.15144214 90.72312287 70 92.8125 C69.40960938 93.12380859 68.81921875 93.43511719 68.2109375 93.75585938 C64.26204291 95.73465567 61.38347267 96.46032135 57 96 C54.61465454 94.41590881 54.61465454 94.41590881 52.31494141 92.18383789 C51.45185364 91.35796173 50.58876587 90.53208557 49.69952393 89.68118286 C48.80868103 88.79639252 47.91783813 87.91160217 47 87 C46.12349792 86.14526093 45.24699585 85.29052185 44.34393311 84.40988159 C41.52992608 81.64542657 38.74253217 78.85554173 35.9609375 76.05859375 C34.9441197 75.0399047 33.92707633 74.02144078 32.90982056 73.00318909 C30.2674752 70.35707413 27.62814982 67.70796784 24.98950195 65.0581665 C22.28262536 62.34095442 19.57282056 59.6266658 16.86328125 56.91210938 C11.57269584 51.61088503 6.28530627 46.30648822 1 41 C0.9906543 42.22106445 0.98130859 43.44212891 0.97167969 44.70019531 C0.93179077 49.23295499 0.86603507 53.76503515 0.79248047 58.29736328 C0.76426447 60.25853747 0.74305306 62.21982551 0.72900391 64.18115234 C0.70758301 67.00156977 0.66093791 69.82061743 0.609375 72.640625 C0.60753204 73.95489471 0.60753204 73.95489471 0.60565186 75.29571533 C0.4597715 81.36621575 0.4597715 81.36621575 -1.74682617 84.40795898 C-5.69287837 87.19614908 -9.82569828 89.49686352 -14.0625 91.8125 C-15.42858398 92.5849707 -15.42858398 92.5849707 -16.82226562 93.37304688 C-17.69689453 93.85451172 -18.57152344 94.33597656 -19.47265625 94.83203125 C-20.26937744 95.27264893 -21.06609863 95.7132666 -21.88696289 96.16723633 C-24 97 -24 97 -27 96 C-27.23196177 85.03872818 -27.40951191 74.07804235 -27.51812172 63.1148138 C-27.57025766 58.02365725 -27.64093397 52.93418259 -27.75439453 47.84399414 C-27.86326041 42.92903262 -27.92288325 38.01568561 -27.94877243 33.09961128 C-27.96721409 31.22673686 -28.00323072 29.35394843 -28.05730057 27.48176384 C-28.4634864 12.83131555 -28.4634864 12.83131555 -24.8895874 8.35916138 C-22.31689047 6.52103815 -19.89749435 5.24897615 -17 4 C-15.26267947 3.01423393 -13.53220834 2.0161794 -11.8125 1 C-7.53605044 -1.33128426 -4.72599438 -1.06304536 0 0 Z " fill="#E2514A" transform="translate(94,75)"/>
<path d="M0 0 C1.32 1.65 2.64 3.3 4 5 C5.77361161 6.38033838 7.58424087 7.7139296 9.421875 9.0078125 C17.81413655 15.55663384 26.2520854 22.18971244 28.13623047 33.22314453 C28.79658073 39.04958643 28.84246616 44.83164665 28.6875 50.6875 C28.65251404 52.14413055 28.65251404 52.14413055 28.61682129 53.63018799 C28.52360631 56.42894124 28.37995452 59.21732915 28.19921875 62.01171875 C28.14676498 62.8587587 28.09431122 63.70579865 28.04026794 64.57850647 C27.70147894 68.23193509 27.44635954 70.40322475 25.21630859 73.38476562 C21.31302551 76.22945838 17.17091452 78.49871481 12.9375 80.8125 C11.57141602 81.5849707 11.57141602 81.5849707 10.17773438 82.37304688 C9.30310547 82.85451172 8.42847656 83.33597656 7.52734375 83.83203125 C6.73062256 84.27264893 5.93390137 84.7132666 5.11303711 85.16723633 C3 86 3 86 0 85 C0 56.95 0 28.9 0 0 Z " fill="#DF3443" transform="translate(67,86)"/>
<path d="M0 0 C0 25.74 0 51.48 0 78 C-4.66005128 74.00567033 -9.04971264 70.05917082 -13.3125 65.6875 C-16.80299808 61.88754356 -16.80299808 61.88754356 -21 59 C-21 58.34 -21 57.68 -21 57 C-21.639375 56.71125 -22.27875 56.4225 -22.9375 56.125 C-25 55 -25 55 -26 53 C-26.28483462 47.47132405 -26.31373281 41.94156993 -26.35009766 36.40625 C-26.3666683 34.55553624 -26.39397308 32.70488677 -26.43212891 30.85449219 C-26.48685916 28.18651127 -26.50876334 25.52002892 -26.5234375 22.8515625 C-26.54610687 22.02540436 -26.56877625 21.19924622 -26.59213257 20.34805298 C-26.57098178 14.60363396 -26.57098178 14.60363396 -23.73730469 11.60791016 C-22.83399414 11.0772998 -21.93068359 10.54668945 -21 10 C-19.92468018 9.3208252 -19.92468018 9.3208252 -18.82763672 8.62792969 C-16.51363753 7.32863939 -14.19819707 6.0327926 -11.875 4.75 C-11.06417969 4.29109375 -10.25335938 3.8321875 -9.41796875 3.359375 C-8.63808594 2.92625 -7.85820312 2.493125 -7.0546875 2.046875 C-6.34812012 1.65338867 -5.64155273 1.25990234 -4.91357422 0.85449219 C-3 0 -3 0 0 0 Z " fill="#EA7A56" transform="translate(177,79)"/>
</svg>
