<svg id="visual" viewBox="0 0 900 600" width="900" height="600" xmlns="http://www.w3.org/2000/svg" xmlns:xlink="http://www.w3.org/1999/xlink" version="1.1"><rect x="0" y="0" width="900" height="600" fill="#001220"></rect><path d="M0 439L21.5 424.2C43 409.3 86 379.7 128.8 364.7C171.7 349.7 214.3 349.3 257.2 356.2C300 363 343 377 385.8 388.3C428.7 399.7 471.3 408.3 514.2 404.3C557 400.3 600 383.7 642.8 383.7C685.7 383.7 728.3 400.3 771.2 400.3C814 400.3 857 383.7 878.5 375.3L900 367L900 601L878.5 601C857 601 814 601 771.2 601C728.3 601 685.7 601 642.8 601C600 601 557 601 514.2 601C471.3 601 428.7 601 385.8 601C343 601 300 601 257.2 601C214.3 601 171.7 601 128.8 601C86 601 43 601 21.5 601L0 601Z" fill="#c62368"></path><path d="M0 461L21.5 450.5C43 440 86 419 128.8 417C171.7 415 214.3 432 257.2 444.3C300 456.7 343 464.3 385.8 466C428.7 467.7 471.3 463.3 514.2 461.2C557 459 600 459 642.8 449.2C685.7 439.3 728.3 419.7 771.2 408.7C814 397.7 857 395.3 878.5 394.2L900 393L900 601L878.5 601C857 601 814 601 771.2 601C728.3 601 685.7 601 642.8 601C600 601 557 601 514.2 601C471.3 601 428.7 601 385.8 601C343 601 300 601 257.2 601C214.3 601 171.7 601 128.8 601C86 601 43 601 21.5 601L0 601Z" fill="#d53867"></path><path d="M0 455L21.5 455.7C43 456.3 86 457.7 128.8 465.2C171.7 472.7 214.3 486.3 257.2 483.2C300 480 343 460 385.8 460C428.7 460 471.3 480 514.2 487.5C557 495 600 490 642.8 486C685.7 482 728.3 479 771.2 481.5C814 484 857 492 878.5 496L900 500L900 601L878.5 601C857 601 814 601 771.2 601C728.3 601 685.7 601 642.8 601C600 601 557 601 514.2 601C471.3 601 428.7 601 385.8 601C343 601 300 601 257.2 601C214.3 601 171.7 601 128.8 601C86 601 43 601 21.5 601L0 601Z" fill="#e34c67"></path><path d="M0 505L21.5 503.7C43 502.3 86 499.7 128.8 496.7C171.7 493.7 214.3 490.3 257.2 491.7C300 493 343 499 385.8 501.7C428.7 504.3 471.3 503.7 514.2 500.8C557 498 600 493 642.8 498.8C685.7 504.7 728.3 521.3 771.2 520.2C814 519 857 500 878.5 490.5L900 481L900 601L878.5 601C857 601 814 601 771.2 601C728.3 601 685.7 601 642.8 601C600 601 557 601 514.2 601C471.3 601 428.7 601 385.8 601C343 601 300 601 257.2 601C214.3 601 171.7 601 128.8 601C86 601 43 601 21.5 601L0 601Z" fill="#ef5f67"></path><path d="M0 562L21.5 556.8C43 551.7 86 541.3 128.8 537C171.7 532.7 214.3 534.3 257.2 539.8C300 545.3 343 554.7 385.8 560.3C428.7 566 471.3 568 514.2 563.7C557 559.3 600 548.7 642.8 547.2C685.7 545.7 728.3 553.3 771.2 555.2C814 557 857 553 878.5 551L900 549L900 601L878.5 601C857 601 814 601 771.2 601C728.3 601 685.7 601 642.8 601C600 601 557 601 514.2 601C471.3 601 428.7 601 385.8 601C343 601 300 601 257.2 601C214.3 601 171.7 601 128.8 601C86 601 43 601 21.5 601L0 601Z" fill="#fa7268"></path></svg>